HIERARCHY
ROOT root
{
	OFFSET 0.000000 0.000000 0.000000
	CHANNELS 6 Xposition Yposition Zposition Zrotation Yrotation Xrotation
	JOINT lhip
	{
		OFFSET 0.058581 -0.082280 -0.017664
		CHANNELS 3 Zrotation Yrotation Xrotation
		JOINT lknee
		{
			OFFSET 0.043451 -0.386469 0.008037
			CHANNELS 3 Zrotation Yrotation Xrotation
			JOINT lankle
			{
				OFFSET -0.014790 -0.426874 -0.037428
				CHANNELS 3 Zrotation Yrotation Xrotation
				JOINT ltoe
				{
					OFFSET 0.041054 -0.060286 0.122042
					CHANNELS 3 Zrotation Yrotation Xrotation
					End Site
					{
						OFFSET 0.000000 0.000000 0.000000
					}
				}
			}
		}
	}
	JOINT rhip
	{
		OFFSET -0.060310 -0.090513 -0.013543
		CHANNELS 3 Zrotation Yrotation Xrotation
		JOINT rknee
		{
			OFFSET -0.043257 -0.383688 -0.004843
			CHANNELS 3 Zrotation Yrotation Xrotation
			JOINT rankle
			{
				OFFSET 0.019056 -0.420046 -0.034562
				CHANNELS 3 Zrotation Yrotation Xrotation
				JOINT rtoe
				{
					OFFSET -0.034840 -0.062106 0.130323
					CHANNELS 3 Zrotation Yrotation Xrotation
					End Site
					{
						OFFSET 0.000000 0.000000 0.000000
					}
				}
			}
		}
	}
	JOINT lowerback
	{
		OFFSET 0.004439 0.124404 -0.038385
		CHANNELS 3 Zrotation Yrotation Xrotation
		JOINT upperback
		{
			OFFSET 0.004488 0.137956 0.026820
			CHANNELS 3 Zrotation Yrotation Xrotation
			JOINT chest
			{
				OFFSET -0.002265 0.056032 0.002855
				CHANNELS 3 Zrotation Yrotation Xrotation
				JOINT lowerneck
				{
					OFFSET -0.013390 0.211636 -0.033468
					CHANNELS 3 Zrotation Yrotation Xrotation
					JOINT upperneck
					{
						OFFSET 0.010113 0.088937 0.050410
						CHANNELS 3 Zrotation Yrotation Xrotation
						End Site
						{
							OFFSET 0.000000 0.000000 0.000000
						}
					}
				}
				JOINT lclavicle
				{
					OFFSET 0.071702 0.114000 -0.018898
					CHANNELS 3 Zrotation Yrotation Xrotation
					JOINT lshoulder
					{
						OFFSET 0.122921 0.045205 -0.019046
						CHANNELS 3 Zrotation Yrotation Xrotation
						JOINT lelbow
						{
							OFFSET 0.255332 -0.015649 -0.022946
							CHANNELS 3 Zrotation Yrotation Xrotation
							JOINT lwrist
							{
								OFFSET 0.265709 0.012698 -0.007375
								CHANNELS 3 Zrotation Yrotation Xrotation
								End Site
								{
									OFFSET 0.000000 0.000000 0.000000
								}
							}
						}
					}
				}
				JOINT rclavicle
				{
					OFFSET -0.082954 0.112472 -0.023707
					CHANNELS 3 Zrotation Yrotation Xrotation
					JOINT rshoulder
					{
						OFFSET -0.113228 0.046853 -0.008472
						CHANNELS 3 Zrotation Yrotation Xrotation
						JOINT relbow
						{
							OFFSET -0.260127 -0.014369 -0.031269
							CHANNELS 3 Zrotation Yrotation Xrotation
							JOINT rwrist
							{
								OFFSET -0.269108 0.006794 -0.006027
								CHANNELS 3 Zrotation Yrotation Xrotation
								End Site
								{
									OFFSET 0.000000 0.000000 0.000000
								}
							}
						}
					}
				}
			}
		}
	}
}
MOTION
Frames: 5
Frame Time: 0.033333
1.240171 0.704922 0.987554 -97.531038 -0.053450 84.284404 -3.029747 -1.584769 5.687611 1.919546 -4.566683 1.608571 1.686854 11.573839 -11.829061 0.000000 -0.000000 0.000000 2.691512 0.210833 2.661402 -4.890490 0.209716 5.785892 2.968993 -6.661180 -12.061030 0.000000 -0.000000 0.000000 -1.121862 2.640131 10.798649 -1.691752 -0.737865 -0.402736 -0.320925 -0.117159 0.762546 4.086267 4.040700 -9.755279 4.244512 -3.402992 2.102958 -25.679323 -2.353617 -1.553898 -53.967160 -12.831626 8.384934 4.728722 -18.809984 -3.356589 -23.161159 -7.061869 -19.290958 23.953662 4.971878 -0.684940 61.495491 3.844553 21.703051 -11.473932 32.850842 9.148896 15.948768 1.824828 0.478392 
1.240145 0.705404 0.987120 -97.434041 0.044111 84.295929 -2.794016 -0.408231 5.244039 2.021503 -5.559567 2.264236 1.160420 11.244376 -12.521538 0.000000 -0.000000 0.000000 2.650322 -0.237294 2.590282 -4.815076 0.214718 5.862964 3.770314 -6.270324 -12.254818 0.000000 -0.000000 0.000000 -0.974209 2.846758 10.952228 -1.683503 -1.239721 -0.561599 -0.301027 -0.152609 0.954622 4.227181 4.145583 -9.746792 4.212501 -3.217819 1.755649 -26.732109 -3.995585 -0.808905 -53.075755 -10.789191 9.215082 3.733902 -18.296077 2.971265 -5.210049 -3.822970 -3.288784 24.171523 5.732311 -0.626964 60.776291 3.543073 20.130746 -8.512499 32.064018 9.988290 5.628924 3.620176 1.237876 
1.240687 0.706106 0.986808 -97.307162 0.222149 84.561765 -2.622648 -0.865837 4.687419 2.047002 -5.368277 2.742371 1.259026 11.430285 -12.558429 0.000000 -0.000000 0.000000 2.962649 0.067842 2.227595 -4.839775 0.108466 5.997210 3.826676 -6.725654 -12.294334 0.000000 -0.000000 0.000000 -0.863595 2.801379 11.052894 -1.497888 -1.432176 -1.039394 -0.416650 0.039212 1.254187 4.431952 4.255611 -9.929356 4.071855 -3.525565 1.610029 -25.769614 -3.941361 -0.560323 -53.643613 -10.522313 9.969083 2.824536 -18.235665 5.680061 -5.217507 -3.557956 -1.654054 23.900972 5.619483 -0.661825 60.927516 3.503286 20.073051 -8.399791 31.193988 10.192091 4.411582 3.606450 2.376354 
1.238759 0.707846 0.986649 -97.984235 0.045217 84.621106 -2.738254 -0.302020 5.152106 2.166652 -5.440276 2.145663 1.198076 11.688435 -12.541235 0.000000 -0.000000 0.000000 2.886118 0.143148 2.282130 -4.894016 0.589732 5.990812 3.877246 -6.577958 -12.261660 0.000000 -0.000000 0.000000 -1.074454 2.882149 10.388091 -1.550537 -1.099983 -0.620810 -0.487976 0.282651 1.361230 4.494827 4.537123 -9.736487 4.058816 -3.795482 1.429046 -25.447665 -3.985533 -0.297683 -53.084993 -9.618867 11.011804 1.028384 -18.965755 9.054512 -3.694118 -4.098082 0.083732 23.884102 5.808787 -0.412779 60.626305 3.919253 19.892036 -7.571763 29.671755 10.842116 3.544113 3.107563 2.972457 
1.238444 0.708842 0.986656 -97.750049 0.093671 84.678095 -2.552231 -0.385161 5.057176 2.028897 -5.471686 2.276374 1.189589 11.629421 -12.651793 0.000000 -0.000000 0.000000 2.922099 -0.044459 2.359654 -4.836114 0.618332 5.844965 3.947795 -6.691772 -12.210284 0.000000 -0.000000 0.000000 -1.136250 2.956140 10.236936 -1.424711 -1.182156 -0.508093 -0.469347 0.228185 1.310493 4.486905 4.512991 -9.637434 3.945304 -3.842210 1.432037 -25.358266 -3.802902 -0.139274 -52.867138 -9.390184 11.407710 -0.164793 -19.536003 10.143288 -4.322819 -4.062055 -0.201215 23.920194 5.627387 -0.496919 60.280033 3.900744 19.943403 -7.160178 29.060113 11.449356 4.270826 2.673003 3.488509 
